<svg width="32" height="32" viewBox="0 0 32 32" xmlns="http://www.w3.org/2000/svg">
  <g fill="none" fill-rule="evenodd">
    <circle cx="16" cy="16" r="16" fill="#E8E4DF"/>
    <path d="M349.000521 667.5C350.103125 667.5 351 668.363705 351 669.427398 351 670.490339 350.103125 671.351789 349.000521 671.351789 347.89375 671.351789 347 670.490339 347 669.427398 347 668.363705 347.89375 667.5 349.000521 667.5L349.000521 667.5ZM347.273438 683.5 350.726042 683.5 350.726042 672.81265 347.273438 672.81265 347.273438 683.5ZM353 672.765117 356.076104 672.765117 356.076104 674.233633 356.120132 674.233633C356.547825 673.388843 357.593836 672.5 359.153176 672.5 362.400068 672.5 363 674.722534 363 677.612192L363 683.5 359.794717 683.5 359.794717 678.279667C359.794717 677.034885 359.773913 675.432652 358.127969 675.432652 356.459771 675.432652 356.205283 676.790358 356.205283 678.190405L356.205283 683.5 353 683.5 353 672.765117" fill="#232322" transform="translate(-339.000000, -660.000000)"/>
  </g>
</svg>
